<?xml version="1.0" encoding="UTF-8"?>
<svg id="Capa_2" data-name="Capa 2" xmlns="http://www.w3.org/2000/svg" viewBox="0 0 251 251">
  <defs>
    <style>
      .cls-1 {
        fill: #fff;
      }
    </style>
  </defs>
  <g id="Capa_1-2" data-name="Capa 1">
    <path id="Trazado_266" data-name="Trazado 266" class="cls-1" d="m133.34,235.33c-19.98.07-39.65-4.99-57.11-14.71L0,251l30.39-76.23c-9.71-17.46-14.77-37.13-14.7-57.11-.06-15.72,3.11-31.28,9.31-45.72,11.81-28.31,34.31-50.82,62.63-62.63,29.21-12.42,62.22-12.42,91.43,0,28.31,11.81,50.82,34.32,62.63,62.63,12.42,29.21,12.42,62.22,0,91.43-11.81,28.31-34.31,50.82-62.63,62.62-14.44,6.21-30,9.38-45.72,9.33Zm39.22-94.13h-15.68l-8.83,7.84c-7.35-1.96-16.38-8.29-27.09-19-10.7-10.7-17.04-19.73-19-27.09l7.84-8.83v-15.68c-.08-3.02-1.11-5.93-2.94-8.34-1.65-2.5-3.88-4.56-6.49-6.01-2.37-1.22-4.04-1.34-5.02-.35l-11.52,11.52c-6.37,6.37-7.31,16.3-2.83,29.78,5.41,14.9,14.22,28.33,25.74,39.22,10.89,11.52,24.32,20.33,39.22,25.74,13.48,4.49,23.41,3.55,29.78-2.83l11.52-11.53c.98-.98.86-2.65-.35-5.02-1.45-2.62-3.51-4.84-6.01-6.49-2.4-1.83-5.32-2.86-8.35-2.94h0Z"/>
  </g>
</svg>